<?xml version="1.0" encoding="utf-8"?>
<!-- Generator: Adobe Illustrator 26.0.1, SVG Export Plug-In . SVG Version: 6.00 Build 0)  -->
<svg version="1.1" id="Layer_1" xmlns="http://www.w3.org/2000/svg" xmlns:xlink="http://www.w3.org/1999/xlink" x="0px" y="0px"
	 viewBox="0 0 63 59" style="enable-background:new 0 0 63 59;" xml:space="preserve">
<path d="M58.4,28.4c-0.4-2.7-0.9-5.4-1.7-8c-0.9-3-2-6.1-3.8-8.7C44.4-0.5,24.7,0,14.1,8.9C7,15,3.2,24.8,4.5,34
	c1.6,12,10.9,22,23.2,22.5c5.4,0.2,11-0.8,16.1-2.8c5.1-2,9.9-5.2,12.5-10.1C58.9,39,59.1,33.6,58.4,28.4z M28.3,37.7
	c-2.5,2.1-6.1,3.2-9.4,2c-2.7-1-4.9-3.1-5.8-5.9c-2-5.7,1.2-12.5,6.9-14.4c2.7-0.9,5.1-0.5,6.9,0.7C32.1,23.4,33.6,33.1,28.3,37.7z
	 M50.8,37.3c-1.9,1.6-4.7,0-6.5-1c-1.5-0.8-2.9-1.7-4.3-2.7c0,0.5,0,0.9,0,1.4c-0.1,2,0,4.4-0.8,6.3c-0.7,1.7-2.9,2.6-4.4,1.4
	c-1.8-1.4-1.3-4.1-1.2-6c0.1-3.1,0.1-6.2,0.1-9.3c0-2-0.8-6,0.7-7.6c1.4-1.5,4.1-1.1,4.7,0.9c0.4,1.1,0.4,2.4,0.5,3.6
	c0,0.5,0.1,0.9,0.1,1.4c0.4-0.5,0.8-0.9,1.2-1.4c0.7-0.8,1.5-1.6,2.4-2.4c0.8-0.8,1.7-1.6,2.6-2.2c1.1-0.7,2.7-0.8,3.5,0.4
	c0.7,1,0.5,2.3-0.1,3.3c-1.5,2.5-3.4,4.8-5.5,6.8c1.6,0.6,3.1,1.2,4.6,1.9c1,0.5,2.1,1,2.8,1.9C51.9,35,51.8,36.5,50.8,37.3z"/>
</svg>
